<svg style="max-height: 500px" viewBox="62.83072 366.3637080970492 265.5744 282.3554098360655" version="1.1" xmlns="http://www.w3.org/2000/svg" width="265.5744" height="282.3554098360655">

<path style="opacity: 1; visibility: visible;" data-index="1" d="M0 0 C1.71919104 -0.00763135 3.43837869 -0.01606051 5.15756226 -0.02522278 C9.80878842 -0.04708251 14.45994888 -0.05595554 19.1112206 -0.06104922 C22.02456317 -0.06470388 24.93788882 -0.07094976 27.8512249 -0.07805061 C38.03640364 -0.10251862 48.22153167 -0.1155906 58.40673828 -0.11914062 C67.86513729 -0.1227705 77.32321077 -0.15263348 86.78151041 -0.19454521 C94.92965637 -0.22937122 103.07769511 -0.24469121 111.2259149 -0.24538666 C116.08003274 -0.24617549 120.93381876 -0.25473109 125.78785896 -0.28338432 C130.36075687 -0.30977591 134.93305285 -0.31165408 139.50599289 -0.29572868 C141.17151528 -0.29393063 142.837074 -0.30045369 144.50251961 -0.31654739 C161.0028113 -0.46609836 176.31364139 2.75258614 188.99975586 14.11108398 C197.95287038 23.49239094 202.30646119 35.73495332 202.2515564 48.54594421 C202.25608751 49.33581641 202.26061862 50.12568862 202.26528704 50.93949634 C202.27786718 53.56535656 202.27631482 56.19100766 202.2746582 58.81689453 C202.28064752 60.70829024 202.28745399 62.59968352 202.29501343 64.49107361 C202.31264137 69.61528941 202.31736751 74.73943836 202.318645 79.86368155 C202.32006918 83.06996904 202.32434389 86.27623967 202.32963943 89.48252296 C202.34813041 100.68220722 202.35631138 111.88184395 202.35473633 123.08154297 C202.35353578 133.49820464 202.37462353 143.91465882 202.40622365 154.33126801 C202.43243484 163.292927 202.44310157 172.25451844 202.44182551 181.21621543 C202.44131722 186.5603575 202.44692633 191.90431515 202.46818161 197.24841881 C202.48764521 202.27921562 202.48763317 207.30965366 202.47314835 212.34046364 C202.47106907 214.17816827 202.47570808 216.01589584 202.48786926 217.8535614 C202.59297855 234.84861195 199.75279506 249.15187837 187.85913086 262.05639648 C182.87759791 266.79513202 177.35822528 269.8052655 170.98413086 272.30639648 C170.35640306 272.56018161 169.72867525 272.81396673 169.08192539 273.07544231 C160.77250698 276.01844434 152.4291422 275.72160469 143.74365234 275.67871094 C142.01295758 275.68114252 140.28226422 275.68486539 138.55157471 275.68977356 C133.876016 275.69913528 129.20066837 275.68979735 124.52512622 275.67644143 C119.61929488 275.6650775 114.71347318 275.66923821 109.80763245 275.67118835 C101.57224096 275.67206969 93.33693205 275.6610239 85.1015625 275.64257812 C75.5948278 275.62140597 66.08821392 275.61790312 56.58146042 275.62414008 C47.41590948 275.62984419 38.25040087 275.62417619 29.08485603 275.61296654 C25.19313838 275.60833513 21.30144674 275.60744036 17.4097271 275.60955238 C12.82384196 275.61144272 8.23807897 275.6032743 3.65222168 275.58749199 C1.97410144 275.5832673 0.29596876 275.5823863 -1.38215446 275.58518219 C-15.7412843 275.60546809 -29.15298917 274.26946135 -41.01586914 265.30639648 C-41.57918945 264.88745117 -42.14250977 264.46850586 -42.72290039 264.03686523 C-51.36532302 257.20200812 -56.03026646 248.08483338 -58.01586914 237.30639648 C-58.7162764 230.78064603 -58.56423203 224.19955672 -58.53344727 217.64575195 C-58.53887752 215.69125855 -58.54600521 213.73676926 -58.5546875 211.7822876 C-58.57281392 206.50965624 -58.56589832 201.23734041 -58.55317116 195.96470404 C-58.54299074 190.42853842 -58.5524505 184.89239845 -58.55871582 179.35623169 C-58.56597638 170.06434312 -58.55644509 160.77258207 -58.53735352 151.48071289 C-58.51557509 140.75771785 -58.52264972 130.03502697 -58.54465914 119.31203926 C-58.56284323 110.081082 -58.56535713 100.85021599 -58.55490446 91.6192466 C-58.54868773 86.11653481 -58.54778392 80.61396574 -58.56105042 75.11126328 C-58.57265261 69.93838337 -58.56450355 64.76589372 -58.54147339 59.59305573 C-58.53621014 57.70130433 -58.53765893 55.80951977 -58.54652405 53.91778183 C-58.58861705 44.0187099 -58.51823397 35.38363332 -54.01586914 26.30639648 C-53.49766602 25.2506543 -52.97946289 24.19491211 -52.44555664 23.10717773 C-45.25474375 11.59826363 -35.34809206 4.99747833 -22.39601135 1.26255798 C-15.04371693 -0.32594409 -7.48411015 0.00210972 0 0 Z" fill="#1DBDA9" transform="translate(123.015869140625,369.693603515625)"/>
<path style="opacity: 1;" data-index="2" d="M0 0 C1.65234375 1.19140625 1.65234375 1.19140625 2.65234375 2.19140625 C3.31234375 0.54140625 3.97234375 -1.10859375 4.65234375 -2.80859375 C7.29824389 -2.83544054 9.94387471 -2.85535732 12.58984375 -2.87109375 C13.34458984 -2.87947266 14.09933594 -2.88785156 14.87695312 -2.89648438 C16.80228688 -2.90511816 18.72769956 -2.86083708 20.65234375 -2.80859375 C22.5595037 -0.9014338 21.80932459 2.60201083 21.81347656 5.19873047 C21.82092392 6.29898308 21.82092392 6.29898308 21.82852173 7.42146301 C21.84319489 9.86301601 21.84995805 12.30450378 21.85546875 14.74609375 C21.86122123 16.44467165 21.86697895 18.14324953 21.8727417 19.84182739 C21.88326988 23.41473697 21.8890989 26.98762396 21.89257812 30.56054688 C21.89803052 35.11420185 21.92198024 39.66755288 21.95055008 44.2211132 C21.96929319 47.73697742 21.97438849 51.25277064 21.975914 54.76868057 C21.97892085 56.44542201 21.98688202 58.12216279 22.00009918 59.79885483 C22.0918427 72.34526349 22.01026084 84.27554285 13.00390625 93.96484375 C3.09963332 103.54571185 -9.54118035 104.57950235 -22.67578125 104.4140625 C-30.51336765 104.16015536 -39.85898967 102.87766544 -46.34765625 98.19140625 C-47.6361944 94.24441046 -47.22133911 91.76247553 -45.72265625 87.94140625 C-45.40039062 87.07 -45.078125 86.19859375 -44.74609375 85.30078125 C-43.34765625 83.19140625 -43.34765625 83.19140625 -40.96875 82.2734375 C-37.97993675 82.17989789 -36.65671102 82.74595462 -34.03515625 84.12890625 C-25.56885308 87.76093765 -15.14783225 87.61914322 -6.53515625 84.44140625 C-3.10558641 82.95388198 -1.35452727 81.34936545 0.65234375 78.19140625 C1.65731227 75.17650068 1.75569678 73.14958933 1.71484375 70.00390625 C1.70582031 69.10285156 1.69679688 68.20179688 1.6875 67.2734375 C1.67589844 66.58636719 1.66429687 65.89929688 1.65234375 65.19140625 C1.01296875 65.78953125 0.37359375 66.38765625 -0.28515625 67.00390625 C-8.17884627 72.64225626 -16.85445613 73.17086341 -26.34765625 72.19140625 C-35.88075407 69.72594992 -41.6748611 64.70496041 -46.765625 56.38671875 C-52.53850764 44.72692122 -52.76297669 31.3811294 -49.31640625 19.046875 C-46.04042391 9.39065285 -40.38694387 2.75289892 -31.47265625 -2.24609375 C-21.69755048 -6.15613606 -8.94240662 -5.36544397 0 0 Z" fill="#2F2F30" transform="translate(685.34765625,483.80859375)"/>
<path style="opacity: 1;" data-index="3" d="M0 0 C6.93 0 13.86 0 21 0 C21 14.19 21 28.38 21 43 C34.2 43 47.4 43 61 43 C61 28.81 61 14.62 61 0 C67.93 0 74.86 0 82 0 C82.02254861 13.41226093 82.04091369 26.82450938 82.05181217 40.23678493 C82.0570416 46.46393472 82.06414033 52.69107092 82.07543945 58.91821289 C82.08626621 64.92226865 82.09227638 70.92631129 82.09487724 76.93037605 C82.09673188 79.2266161 82.10035321 81.52285539 82.10573006 83.81908989 C82.11293768 87.02320814 82.11399106 90.2272715 82.11352539 93.43139648 C82.11712067 94.39092728 82.12071594 95.35045807 82.12442017 96.33906555 C82.1230455 97.20709808 82.12167084 98.07513062 82.12025452 98.96946716 C82.12117631 99.72810279 82.1220981 100.48673841 82.12304783 101.268363 C82 103 82 103 81 104 C79.59651265 104.09860131 78.18819523 104.13078937 76.78125 104.1328125 C75.50701172 104.13474609 75.50701172 104.13474609 74.20703125 104.13671875 C73.31371094 104.13285156 72.42039062 104.12898437 71.5 104.125 C70.60667969 104.12886719 69.71335937 104.13273438 68.79296875 104.13671875 C67.94347656 104.13542969 67.09398437 104.13414062 66.21875 104.1328125 C65.43435547 104.13168457 64.64996094 104.13055664 63.84179688 104.12939453 C62 104 62 104 61 103 C60.90731001 101.64905018 60.88252674 100.29332909 60.88647461 98.93920898 C60.88655014 98.07839218 60.88662567 97.21757538 60.88670349 96.33067322 C60.89186478 95.39526199 60.89702606 94.45985077 60.90234375 93.49609375 C60.9037587 92.54307877 60.90517365 91.59006378 60.90663147 90.60816956 C60.91224848 87.55124835 60.92480384 84.49439923 60.9375 81.4375 C60.94251281 79.37044376 60.94707609 77.30338638 60.95117188 75.23632812 C60.96137442 70.15750167 60.98094644 65.07883194 61 60 C47.8 60 34.6 60 21 60 C21.01160156 63.09246094 21.02320313 66.18492187 21.03515625 69.37109375 C21.04294601 72.35294492 21.04902323 75.33479497 21.05493164 78.31665039 C21.05997288 80.39543156 21.06680574 82.47420916 21.07543945 84.55297852 C21.08751422 87.53402586 21.09323024 90.51502649 21.09765625 93.49609375 C21.10281754 94.43150497 21.10797882 95.3669162 21.11329651 96.33067322 C21.11340981 97.62189842 21.11340981 97.62189842 21.11352539 98.93920898 C21.115746 99.70087875 21.11796661 100.46254852 21.12025452 101.24729919 C21 103 21 103 20 104 C18.59651265 104.09860131 17.18819523 104.13078937 15.78125 104.1328125 C14.50701172 104.13474609 14.50701172 104.13474609 13.20703125 104.13671875 C12.31371094 104.13285156 11.42039062 104.12898437 10.5 104.125 C9.60667969 104.12886719 8.71335937 104.13273438 7.79296875 104.13671875 C6.94347656 104.13542969 6.09398437 104.13414062 5.21875 104.1328125 C4.43435547 104.13168457 3.64996094 104.13055664 2.84179688 104.12939453 C1 104 1 104 0 103 C-0.09527037 101.65927183 -0.1218877 100.31357497 -0.12025452 98.96946716 C-0.12162918 98.10143463 -0.12300385 97.2334021 -0.12442017 96.33906555 C-0.12082489 95.37953476 -0.11722961 94.42000397 -0.11352539 93.43139648 C-0.11367142 92.42663269 -0.11381744 91.4218689 -0.1139679 90.38665771 C-0.1132683 87.04811483 -0.10547374 83.70962695 -0.09765625 80.37109375 C-0.09579224 78.06323782 -0.09436826 75.75538149 -0.09336853 73.44752502 C-0.08954204 67.35982174 -0.07971065 61.27214214 -0.06866455 55.18444824 C-0.05845323 48.97778646 -0.05387151 42.77112087 -0.04882812 36.56445312 C-0.0380885 24.37628998 -0.02049064 12.18815066 0 0 Z" fill="#303030" transform="translate(377,453)"/>
<path style="opacity: 1;" data-index="4" d="M0 0 C0.92433838 0.00684814 1.84867676 0.01369629 2.80102539 0.02075195 C11.20625704 0.2191603 16.83489865 2.04620857 23.875 6.5625 C29.70738573 12.80179637 32.69622993 20.27093079 32.67602539 28.75683594 C32.67591209 30.34803253 32.67591209 30.34803253 32.67579651 31.97137451 C32.67063522 33.11003967 32.66547394 34.24870483 32.66015625 35.421875 C32.6587413 36.59260559 32.65732635 37.76333618 32.65586853 38.96954346 C32.6502709 42.70888829 32.6377188 46.44817326 32.625 50.1875 C32.6199847 52.72265539 32.61542184 55.25781171 32.61132812 57.79296875 C32.60030224 64.00783293 32.58356644 70.22266219 32.5625 76.4375 C29.49716836 77.97016582 26.29495728 77.54026471 22.9375 77.5 C22.23109375 77.49548828 21.5246875 77.49097656 20.796875 77.48632812 C19.05204725 77.47453875 17.307263 77.45660324 15.5625 77.4375 C14.9025 75.4575 14.2425 73.4775 13.5625 71.4375 C12.87542969 71.85902344 12.18835938 72.28054688 11.48046875 72.71484375 C10.57941406 73.26269531 9.67835938 73.81054688 8.75 74.375 C7.85667969 74.92027344 6.96335937 75.46554687 6.04296875 76.02734375 C-1.07930496 80.07638439 -11.74785355 79.68885204 -19.5703125 77.6015625 C-25.38932816 74.95008442 -29.40182122 71.07198867 -32.4375 65.4375 C-34.54457658 59.15529018 -34.61131409 51.11981069 -31.875 45.0625 C-27.67486215 37.94888625 -21.1700965 33.97112821 -13.3203125 31.87109375 C-9.18783277 31.24954192 -5.11016299 31.29333003 -0.9375 31.3125 C0.32513672 31.30669922 0.32513672 31.30669922 1.61328125 31.30078125 C5.72518987 31.3072567 9.55268972 31.40218013 13.5625 32.4375 C12.88355203 24.96029908 12.88355203 24.96029908 9.0625 18.8125 C3.03856268 15.49933448 -3.40616888 15.53513809 -10.125 17.0390625 C-13.63901297 18.18342857 -16.3417003 19.37363353 -19.4375 21.4375 C-21.875 21.5 -21.875 21.5 -24.4375 20.4375 C-26.71877387 17.70569241 -28.57913212 15.04471667 -28.2578125 11.3984375 C-27.22719139 8.93476228 -26.07421711 7.96481928 -23.9375 6.375 C-23.3084375 5.88902344 -22.679375 5.40304687 -22.03125 4.90234375 C-14.93683427 0.89570836 -8.05823115 -0.09156248 0 0 Z" fill="#302F30" transform="translate(754.4375,479.5625)"/>
<path style="opacity: 1;" data-index="5" d="M0 0 C7.26485348 7.95674428 8.34770802 15.80663418 8.1484375 26.28515625 C8.14373444 27.53380966 8.13903137 28.78246307 8.13418579 30.06895447 C8.11656071 33.35531207 8.07677909 36.64040344 8.02661133 39.9263916 C7.99093352 42.62268433 7.97808292 45.31887166 7.96619225 48.01535892 C7.94071416 53.57296374 7.898373 59.13066442 7.81787109 64.68774414 C7.80501068 65.66796036 7.79215027 66.64817657 7.77890015 67.65809631 C7.625 69.875 7.625 69.875 6.625 70.875 C4.09450598 70.94813567 1.59195163 70.96747527 -0.9375 70.9375 C-2.00387695 70.93073242 -2.00387695 70.93073242 -3.09179688 70.92382812 C-4.85290013 70.91200864 -6.61396036 70.89407263 -8.375 70.875 C-9.035 68.565 -9.695 66.255 -10.375 63.875 C-10.87128906 64.28492188 -11.36757813 64.69484375 -11.87890625 65.1171875 C-12.55824219 65.65601563 -13.23757813 66.19484375 -13.9375 66.75 C-14.59878906 67.28367187 -15.26007812 67.81734375 -15.94140625 68.3671875 C-23.30490977 72.92948663 -32.02262161 72.59472622 -40.375 71.875 C-47.41202142 70.05677519 -52.03185421 66.30603491 -56.125 60.3125 C-59.11355085 54.48482584 -59.39907548 47.73070587 -57.7265625 41.43359375 C-55.22757409 35.1220461 -51.46223419 30.89094723 -45.35546875 27.87890625 C-38.83981555 25.27513662 -32.41864249 24.71037194 -25.4375 24.75 C-24.76009766 24.74613281 -24.08269531 24.74226563 -23.38476562 24.73828125 C-18.93796111 24.7468082 -14.7479921 25.15662059 -10.375 25.875 C-11.21973818 19.38186321 -11.93649184 15.08984382 -17.375 10.875 C-22.05913558 8.53293221 -28.2985416 9.37004012 -33.375 9.875 C-36.21678817 10.94300449 -38.6208351 12.17742744 -41.19140625 13.78125 C-43.75681442 15.06624873 -45.54285667 15.07409619 -48.375 14.875 C-49.07992893 13.65574525 -49.76325901 12.4239894 -50.4375 11.1875 C-50.82035156 10.50300781 -51.20320313 9.81851562 -51.59765625 9.11328125 C-52.6059782 6.20992205 -52.44708566 4.74929863 -51.375 1.875 C-49.37109375 0.14453125 -49.37109375 0.14453125 -46.8125 -1.3125 C-45.98621094 -1.80105469 -45.15992188 -2.28960937 -44.30859375 -2.79296875 C-30.41062773 -9.1034966 -12.8012341 -8.06003628 0 0 Z" fill="#2F2E2F" transform="translate(530.375,486.125)"/>
<path style="opacity: 1;" data-index="6" d="M0 0 C1.07012329 0.00845947 1.07012329 0.00845947 2.16186523 0.01708984 C9.87483673 0.19525111 15.79746055 1.92535693 21.47885132 7.34146118 C28.137132 15.02222659 28.90062391 23.85323157 28.7109375 33.6015625 C28.70623444 34.82660492 28.70153137 36.05164734 28.69668579 37.31381226 C28.67549554 41.18896859 28.61890786 45.06271405 28.5625 48.9375 C28.54597799 51.57681007 28.53163379 54.21613472 28.51953125 56.85546875 C28.48565939 61.64812571 28.45128032 66.44064648 28.38037109 71.23291016 C28.36751068 72.19234528 28.35465027 73.1517804 28.34140015 74.14028931 C28.1875 76.3125 28.1875 76.3125 27.1875 77.3125 C25.85706375 77.4108721 24.52156656 77.44328592 23.1875 77.4453125 C22.383125 77.44660156 21.57875 77.44789063 20.75 77.44921875 C19.904375 77.44535156 19.05875 77.44148437 18.1875 77.4375 C17.341875 77.44136719 16.49625 77.44523438 15.625 77.44921875 C14.820625 77.44792969 14.01625 77.44664062 13.1875 77.4453125 C12.445 77.44418457 11.7025 77.44305664 10.9375 77.44189453 C9.1875 77.3125 9.1875 77.3125 8.1875 76.3125 C8.08060429 74.81522735 8.04129469 73.31305123 8.02978516 71.81201172 C8.01952301 70.85366425 8.00926086 69.89531677 7.99868774 68.90792847 C7.99138641 67.86323395 7.98408508 66.81853943 7.9765625 65.7421875 C7.94847977 63.54426357 7.91981522 61.346347 7.890625 59.1484375 C7.84944358 55.67252924 7.8125704 52.1967565 7.78613281 48.72070312 C7.75844552 45.37340532 7.71255506 42.02674006 7.6640625 38.6796875 C7.66080963 37.64713837 7.65755676 36.61458923 7.65420532 35.55075073 C7.55538227 29.72115169 7.02494346 25.44926612 4.1875 20.3125 C0.31948129 17.44700859 -4.19962339 17.79995815 -8.8125 18.3125 C-12.19986271 19.50434984 -14.12424009 20.5061588 -16.44897461 23.22973633 C-18.51572469 27.90240477 -18.25334316 32.39399459 -18.25390625 37.44921875 C-18.26711411 38.52500687 -18.28032196 39.60079498 -18.29393005 40.70918274 C-18.33478492 44.13948189 -18.3564958 47.56951267 -18.375 51 C-18.39875502 54.44111832 -18.42679415 57.88198275 -18.46678162 61.32295227 C-18.49121765 63.46298868 -18.50601178 65.60316048 -18.51039124 67.74333191 C-18.52057785 68.70805923 -18.53076447 69.67278656 -18.54125977 70.66674805 C-18.54553482 71.51770554 -18.54980988 72.36866302 -18.55421448 73.2454071 C-18.8125 75.3125 -18.8125 75.3125 -20.8125 77.3125 C-23.70382177 77.48429052 -26.48692065 77.5447947 -29.375 77.5 C-30.16841797 77.49935547 -30.96183594 77.49871094 -31.77929688 77.49804688 C-37.67224478 77.45275522 -37.67224478 77.45275522 -38.8125 76.3125 C-38.91221155 74.01738504 -38.94049866 71.71915451 -38.94189453 69.421875 C-38.94364685 68.70157104 -38.94539917 67.98126709 -38.94720459 67.23913574 C-38.95162288 64.84689966 -38.94868521 62.4547369 -38.9453125 60.0625 C-38.94598555 58.40722642 -38.94695558 56.75195293 -38.94821167 55.09667969 C-38.94968861 51.62303733 -38.94753421 48.14942063 -38.94287109 44.67578125 C-38.9371738 40.21317502 -38.94045283 35.75062892 -38.94644356 31.2880249 C-38.95004927 27.8686477 -38.94891054 24.44928485 -38.94631577 21.02990723 C-38.94564652 19.38399244 -38.94647482 17.73807637 -38.94879532 16.09216309 C-38.95132202 13.79578169 -38.94748103 11.49949901 -38.94189453 9.203125 C-38.94109894 7.89375977 -38.94030334 6.58439453 -38.93948364 5.23535156 C-38.8125 2.3125 -38.8125 2.3125 -37.8125 1.3125 C-34.94982433 1.23924832 -32.111781 1.22011795 -29.25 1.25 C-28.44369141 1.25451172 -27.63738281 1.25902344 -26.80664062 1.26367188 C-24.80856244 1.27549482 -22.81052217 1.29343086 -20.8125 1.3125 C-20.1525 3.2925 -19.4925 5.2725 -18.8125 7.3125 C-17.925625 6.52875 -17.03875 5.745 -16.125 4.9375 C-11.23670202 0.61760877 -6.37332586 -0.05212441 0 0 Z" fill="#2F2F30" transform="translate(933.8125,479.6875)"/>
<path style="opacity: 1;" data-index="7" d="M0 0 C6.58782774 3.93055269 11.29632392 9.47182615 13.375 16.9375 C13.7842129 21.39740594 13.72419025 25.83323415 13.66796875 30.30859375 C13.66372391 31.58605972 13.65947906 32.8635257 13.65510559 34.17970276 C13.6412045 37.55498297 13.6143115 40.92964052 13.58099365 44.30474854 C13.55015321 47.75714779 13.5365706 51.2096117 13.52148438 54.66210938 C13.48847325 61.42074326 13.43831661 68.17908573 13.375 74.9375 C10.39577407 74.96433987 7.41678705 74.98426037 4.4375 75 C3.16229492 75.01256836 3.16229492 75.01256836 1.86132812 75.02539062 C1.05244141 75.02861328 0.24355469 75.03183594 -0.58984375 75.03515625 C-1.3387085 75.04039307 -2.08757324 75.04562988 -2.85913086 75.05102539 C-4.625 74.9375 -4.625 74.9375 -5.625 73.9375 C-5.73190199 72.43492791 -5.77120575 70.92746873 -5.78271484 69.42114258 C-5.79297699 68.45956741 -5.80323914 67.49799225 -5.81381226 66.50727844 C-5.82476425 64.93553108 -5.82476425 64.93553108 -5.8359375 63.33203125 C-5.8640162 61.12954999 -5.89268073 58.92707613 -5.921875 56.72460938 C-5.96308886 53.23983037 -5.99996069 49.75518809 -6.02636719 46.27026367 C-6.0540152 42.91555883 -6.0999015 39.56149029 -6.1484375 36.20703125 C-6.15169037 35.16932083 -6.15494324 34.13161041 -6.15829468 33.06245422 C-6.25049103 27.62334602 -6.51950984 23.61181606 -9.625 18.9375 C-13.23740944 15.75007991 -16.68950412 15.40758016 -21.34375 15.59375 C-25.32860712 16.19420792 -27.41472462 17.4334852 -30.625 19.9375 C-33.99362814 25.91875564 -34.0940777 31.35574964 -34.13671875 38.12109375 C-34.15466995 39.17659927 -34.17262115 40.2321048 -34.19111633 41.31959534 C-34.24504359 44.67135698 -34.27905917 48.02297762 -34.3125 51.375 C-34.34568853 53.6556185 -34.3801796 55.93621844 -34.41601562 58.21679688 C-34.50075988 63.79023811 -34.56918389 69.363698 -34.625 74.9375 C-37.58357409 74.99129226 -40.54117721 75.03107093 -43.5 75.0625 C-44.34175781 75.07925781 -45.18351563 75.09601563 -46.05078125 75.11328125 C-46.85644531 75.11972656 -47.66210938 75.12617187 -48.4921875 75.1328125 C-49.23581543 75.14328613 -49.97944336 75.15375977 -50.74560547 75.16455078 C-52.625 74.9375 -52.625 74.9375 -54.625 72.9375 C-54.87223816 69.93235779 -54.87223816 69.93235779 -54.86791992 66.02514648 C-54.86981827 65.31445007 -54.87171661 64.60375366 -54.87367249 63.871521 C-54.87738406 61.5171005 -54.86667176 59.16298693 -54.85546875 56.80859375 C-54.85427716 55.17717017 -54.85382374 53.5457459 -54.8540802 51.9143219 C-54.85251473 48.49370027 -54.84421959 45.07318322 -54.83081055 41.65258789 C-54.81380716 37.25838375 -54.80999654 32.86429448 -54.81075573 28.4700613 C-54.8104844 25.10129186 -54.80500942 21.73254774 -54.79775429 18.3637867 C-54.79456262 16.74299372 -54.79259906 15.12219786 -54.79186058 13.5014019 C-54.78970302 11.24103736 -54.78097199 8.98079704 -54.77026367 6.72045898 C-54.76645187 5.43187485 -54.76264008 4.14329071 -54.75871277 2.81565857 C-54.625 -0.0625 -54.625 -0.0625 -53.625 -1.0625 C-52.28232587 -1.14881874 -50.93525678 -1.16956473 -49.58984375 -1.16015625 C-48.78095703 -1.15693359 -47.97207031 -1.15371094 -47.13867188 -1.15039062 C-46.28853516 -1.14201172 -45.43839844 -1.13363281 -44.5625 -1.125 C-43.70849609 -1.12048828 -42.85449219 -1.11597656 -41.97460938 -1.11132812 C-39.85804337 -1.09950373 -37.74151315 -1.08156769 -35.625 -1.0625 C-34.965 0.9175 -34.305 2.8975 -33.625 4.9375 C-32.325625 3.761875 -32.325625 3.761875 -31 2.5625 C-23.4407134 -4.27685454 -8.93865833 -4.12971449 0 0 Z" fill="#2F2F30" transform="translate(608.625,482.0625)"/>
<path style="opacity: 1; visibility: visible; fill: rgb(255, 255, 255);" data-index="8" d="M0 0 C0.65819623 -0.00779995 1.31639245 -0.01559991 1.99453402 -0.02363622 C4.19285382 -0.04352846 6.38943694 -0.02780524 8.58776855 -0.01205444 C10.16659046 -0.0188319 11.74540445 -0.02773576 13.32420349 -0.03860474 C17.60736172 -0.0613898 21.88991747 -0.05256527 26.17308617 -0.03670931 C30.65642286 -0.02404611 35.13970814 -0.03579158 39.62304688 -0.04364014 C47.15190895 -0.05273549 54.68052575 -0.04075185 62.20935059 -0.01693726 C70.91245381 0.0102739 79.61497137 0.00145965 88.3180604 -0.02606928 C95.79168919 -0.04876266 103.26514173 -0.05195934 110.73879385 -0.03887594 C115.20190117 -0.03108265 119.66473326 -0.03003636 124.12782288 -0.04655838 C128.32398949 -0.06100733 132.51940141 -0.05097434 136.71548653 -0.0220871 C138.2549826 -0.01547845 139.79454224 -0.01737029 141.33401299 -0.02840042 C143.43699137 -0.0420783 145.53755611 -0.02491952 147.64038086 0 C149.40463032 0.00282769 149.40463032 0.00282769 151.20452118 0.00571251 C155.2632101 0.82535991 156.76713494 2.44271585 159.32019043 5.63491821 C160.06482283 9.60629102 159.69285921 11.07591504 157.44519043 14.44741821 C154.95073223 17.01524283 154.16293756 17.59325991 150.60489941 17.76913929 C149.44071641 17.77341277 148.27653341 17.77768625 147.07707214 17.78208923 C146.10587337 17.78760427 146.10587337 17.78760427 145.11505443 17.79323071 C142.93562243 17.80428381 140.75623808 17.80811411 138.57678223 17.81192017 C137.01811572 17.81818357 135.45945071 17.82483026 133.90078735 17.83183289 C129.65897501 17.84925346 125.41717395 17.85979742 121.17533469 17.86803842 C118.52628428 17.8731861 115.8772374 17.87926192 113.22818947 17.88554955 C104.94310439 17.90460417 96.65802824 17.91883499 88.37292546 17.92716151 C78.80319543 17.93693738 69.23369648 17.9632648 59.6640479 18.00366241 C52.27120728 18.03380188 44.87843298 18.0486283 37.4855321 18.05194253 C33.06820451 18.05429541 28.65112372 18.06328659 24.23386192 18.0884037 C20.07811123 18.1116518 15.92277041 18.11593098 11.76697159 18.10564232 C10.24196448 18.10514606 8.71693741 18.1114932 7.19199181 18.12519836 C5.10892188 18.14287158 3.02733023 18.13583585 0.94425964 18.12266541 C-0.22105443 18.12505376 -1.3863685 18.12744211 -2.58699512 18.12990284 C-6.33480392 17.53009067 -7.98876794 16.25834877 -10.67980957 13.63491821 C-12.12411812 10.74630112 -12.05669463 8.8384412 -11.67980957 5.63491821 C-8.06544194 1.07044855 -5.76607192 0.00924171 0 0 Z" fill="#FCFEFE" transform="translate(121.6798095703125,565.3650817871094)"/>
<path style="opacity: 1;" data-index="9" d="M0 0 C0.96421875 0.00644531 1.9284375 0.01289063 2.921875 0.01953125 C5.25 0.1875 5.25 0.1875 6.25 1.1875 C6.34981214 3.8648138 6.38879875 6.51054175 6.375 9.1875 C6.38080078 10.31285156 6.38080078 10.31285156 6.38671875 11.4609375 C6.37661053 17.06088947 6.37661053 17.06088947 5.25 18.1875 C3.35593982 18.32005476 1.45943588 18.41833609 -0.4375 18.5 C-5.6312969 18.90663179 -8.8141829 19.54686918 -12.75 23.1875 C-16.45066808 27.9883667 -17.84002879 31.60510058 -17.93945312 37.57299805 C-17.95617065 38.43036057 -17.97288818 39.28772308 -17.9901123 40.17106628 C-18.00368774 41.0878566 -18.01726318 42.00464691 -18.03125 42.94921875 C-18.04965942 43.89561722 -18.06806885 44.84201569 -18.08703613 45.8170929 C-18.16570186 49.86468248 -18.23369951 53.91243336 -18.30224609 57.96020508 C-18.35381422 60.91496411 -18.41110115 63.86957314 -18.46875 66.82421875 C-18.48232544 67.74708176 -18.49590088 68.66994476 -18.5098877 69.62077332 C-18.52660522 70.46867935 -18.54332275 71.31658539 -18.56054688 72.19018555 C-18.57933899 73.31459297 -18.57933899 73.31459297 -18.59851074 74.4617157 C-18.75 76.1875 -18.75 76.1875 -19.75 77.1875 C-21.08043625 77.2858721 -22.41593344 77.31828592 -23.75 77.3203125 C-24.554375 77.32160156 -25.35875 77.32289063 -26.1875 77.32421875 C-27.033125 77.32035156 -27.87875 77.31648437 -28.75 77.3125 C-29.595625 77.31636719 -30.44125 77.32023438 -31.3125 77.32421875 C-32.116875 77.32292969 -32.92125 77.32164062 -33.75 77.3203125 C-34.4925 77.31918457 -35.235 77.31805664 -36 77.31689453 C-37.75 77.1875 -37.75 77.1875 -38.75 76.1875 C-38.84971155 73.89238504 -38.87799866 71.59415451 -38.87939453 69.296875 C-38.88114685 68.57657104 -38.88289917 67.85626709 -38.88470459 67.11413574 C-38.88912288 64.72189966 -38.88618521 62.3297369 -38.8828125 59.9375 C-38.88348555 58.28222642 -38.88445558 56.62695293 -38.88571167 54.97167969 C-38.88718861 51.49803733 -38.88503421 48.02442063 -38.88037109 44.55078125 C-38.8746738 40.08817502 -38.87795283 35.62562892 -38.88394356 31.1630249 C-38.88754927 27.7436477 -38.88641054 24.32428485 -38.88381577 20.90490723 C-38.88314652 19.25899244 -38.88397482 17.61307637 -38.88629532 15.96716309 C-38.88882202 13.67078169 -38.88498103 11.37449901 -38.87939453 9.078125 C-38.87859894 7.76875977 -38.87780334 6.45939453 -38.87698364 5.11035156 C-38.75 2.1875 -38.75 2.1875 -37.75 1.1875 C-34.90664952 1.08763025 -32.09302837 1.04872119 -29.25 1.0625 C-28.45207031 1.05863281 -27.65414062 1.05476563 -26.83203125 1.05078125 C-20.87660767 1.06089233 -20.87660767 1.06089233 -19.75 2.1875 C-19.38239269 4.51567964 -19.04758419 6.8493385 -18.75 9.1875 C-18.23050781 8.70539063 -17.71101562 8.22328125 -17.17578125 7.7265625 C-16.47839844 7.09492188 -15.78101563 6.46328125 -15.0625 5.8125 C-14.37800781 5.18601562 -13.69351563 4.55953125 -12.98828125 3.9140625 C-8.79820463 0.68192661 -5.23488704 -0.07781589 0 0 Z" fill="#2E2E2F" transform="translate(841.75,479.8125)"/>
<path style="opacity: 1; visibility: visible; fill: rgb(255, 255, 255);" data-index="10" d="M0 0 C3.4375 1.0625 3.4375 1.0625 5.9375 3.1875 C7.4837797 6.15120276 7.79001948 7.77596715 7.21640015 11.05059814 C5.47820932 15.54035125 1.61223215 18.71336287 -1.76171875 22.0234375 C-2.58952347 22.8546109 -3.41732819 23.6857843 -4.2702179 24.54214478 C-6.02077205 26.29240042 -7.77879809 28.03521046 -9.54370117 29.77099609 C-12.24229225 32.42990559 -14.91031117 35.11691298 -17.57617188 37.80859375 C-19.28210446 39.50696764 -20.98973146 41.20364162 -22.69921875 42.8984375 C-23.89486702 44.10456192 -23.89486702 44.10456192 -25.1146698 45.33505249 C-28.29701581 48.43758428 -30.66045432 50.73755885 -34.87597656 52.25610352 C-38.11932648 52.02237246 -39.11415541 51.39328942 -41.41015625 49.12890625 C-42.0870752 48.47937988 -42.76399414 47.82985352 -43.46142578 47.16064453 C-44.15478027 46.46825684 -44.84813477 45.77586914 -45.5625 45.0625 C-46.97759178 43.73798973 -48.39295695 42.41377148 -49.80859375 41.08984375 C-51.20833485 39.729238 -52.60546566 38.36594184 -54 37 C-54.71865234 36.31873047 -55.43730469 35.63746094 -56.17773438 34.93554688 C-59.24909426 31.91639141 -61.29719705 29.89771299 -62.6171875 25.7421875 C-62.54830935 22.36715837 -61.60711653 20.71292884 -59.5625 18.0625 C-56.39598704 16.47924352 -54.06278398 16.69175341 -50.5625 17.0625 C-48.19327537 18.80947452 -46.38044334 20.35121304 -44.375 22.4375 C-41.29139437 25.52502381 -38.57216665 28.22457984 -34.5625 30.0625 C-34.0277002 29.51722656 -33.49290039 28.97195313 -32.94189453 28.41015625 C-30.52894649 25.95577746 -28.10835969 23.50907444 -25.6875 21.0625 C-24.42486328 19.77472656 -24.42486328 19.77472656 -23.13671875 18.4609375 C-22.33105469 17.64882813 -21.52539062 16.83671875 -20.6953125 16 C-19.95168457 15.24589844 -19.20805664 14.49179687 -18.44189453 13.71484375 C-16.5625 12.0625 -16.5625 12.0625 -14.5625 12.0625 C-14.2325 11.0725 -13.9025 10.0825 -13.5625 9.0625 C-11.3125 6.625 -11.3125 6.625 -8.5625 4.0625 C-7.77875 3.27875 -6.995 2.495 -6.1875 1.6875 C-3.5625 0.0625 -3.5625 0.0625 0 0 Z" fill="#FAFDFD" transform="translate(172.5625,416.9375)"/>
<path style="opacity: 1; visibility: visible; fill: rgb(255, 255, 255);" data-index="11" d="M0 0 C2.61009791 2.87780026 3.94825561 4.72781393 4.10791016 8.65307617 C2.37584155 13.8855417 -1.30278669 17.03554369 -5.1640625 20.86328125 C-6.40221207 22.11216377 -6.40221207 22.11216377 -7.66537476 23.38627625 C-9.4127628 25.14144112 -11.16656909 26.89023621 -12.92626953 28.63305664 C-15.61362513 31.30120643 -18.27039795 33.99733882 -20.92578125 36.69726562 C-22.62843631 38.40021107 -24.33280809 40.10144216 -26.0390625 41.80078125 C-26.83100006 42.60800125 -27.62293762 43.41522125 -28.43887329 44.24690247 C-34.69666715 50.37503843 -34.69666715 50.37503843 -38.84350586 51.18237305 C-42.26196326 50.98486453 -43.20472705 50.75996994 -45.46484375 48.28125 C-46.03364258 47.6816748 -46.60244141 47.08209961 -47.18847656 46.46435547 C-48.05424316 45.49199951 -48.05424316 45.49199951 -48.9375 44.5 C-50.15815353 43.19863942 -51.3807954 41.89914086 -52.60546875 40.6015625 C-53.18731934 39.97540039 -53.76916992 39.34923828 -54.36865234 38.70410156 C-56.9089603 36.05050242 -59.68839401 33.72890047 -62.546875 31.4296875 C-64.26125801 29.74295583 -65.11833352 28.23239689 -66 26 C-65.91957234 22.13947245 -65.42781397 20.49072779 -62.875 17.5625 C-58.97506547 15.44297037 -57.26840209 15.85406062 -53 17 C-50.38394812 18.91588592 -48.2503083 21.17876857 -46.0625 23.5625 C-45.47404297 24.17802734 -44.88558594 24.79355469 -44.27929688 25.42773438 C-42.83878136 26.93851894 -41.41739751 28.46750555 -40 30 C-35.56777817 26.37420499 -31.45048036 22.52405821 -27.42578125 18.453125 C-26.93109344 17.95292847 -26.43640564 17.45273193 -25.92672729 16.93737793 C-23.86181634 14.84477588 -21.80065561 12.74856454 -19.74389648 10.64794922 C-18.22559155 9.09943518 -16.70111623 7.55721021 -15.17578125 6.015625 C-14.27770752 5.10071289 -13.37963379 4.18580078 -12.4543457 3.24316406 C-8.26196586 -0.58848679 -5.57687679 -1.85895893 0 0 Z" fill="#FBFEFD" transform="translate(176,484)"/>
<path style="opacity: 1; visibility: visible; fill: rgb(255, 255, 255);" data-index="12" d="M0 0 C0.69495575 -0.00554901 1.3899115 -0.01109802 2.10592651 -0.01681519 C4.39294367 -0.02858328 6.67796655 -0.00436903 8.96484375 0.02148438 C10.5599763 0.02319635 12.15511165 0.02312891 13.75024414 0.0213623 C17.0893047 0.02301392 20.42769255 0.04168159 23.76660156 0.07324219 C28.0405931 0.1129198 32.31370408 0.11728656 36.58784485 0.10977936 C39.88049344 0.10670569 43.17294509 0.11884421 46.46554565 0.13591003 C48.04115564 0.14292728 49.61678795 0.14606612 51.19241333 0.1452179 C53.39691281 0.14702138 55.60036911 0.1684481 57.8046875 0.1953125 C59.05757568 0.20373169 60.31046387 0.21215088 61.60131836 0.2208252 C65.15973629 0.64598784 67.0447276 1.49831884 69.90234375 3.61523438 C71.81634311 6.13823354 71.90635236 7.42282117 71.83984375 10.61523438 C70.63332158 14.47610531 69.29083228 15.45156905 65.90234375 17.61523438 C62.56335449 18.12989807 62.56335449 18.12989807 58.71289062 18.14868164 C58.0081813 18.15729721 57.30347198 18.16591278 56.57740784 18.17478943 C54.25825814 18.19741035 51.94032054 18.19071905 49.62109375 18.18164062 C48.0035364 18.18687767 46.38598211 18.19315445 44.76843262 18.20042419 C41.38242191 18.21082093 37.99683166 18.20627722 34.61083984 18.19165039 C30.2760671 18.17445578 25.94261904 18.19796856 21.60799408 18.23313999 C18.26901501 18.2551207 14.93035268 18.25367114 11.59132385 18.24537468 C9.99335781 18.24455566 8.3953684 18.25140972 6.79747009 18.26614571 C4.56142167 18.28360762 2.3277505 18.26904077 0.09179688 18.24633789 C-1.1788562 18.24537613 -2.44950928 18.24441437 -3.75866699 18.24342346 C-7.99453214 17.44649839 -9.4771135 15.97512486 -12.09765625 12.61523438 C-12.72265625 9.11523438 -12.72265625 9.11523438 -12.09765625 5.61523438 C-8.38470169 0.86600082 -5.94900909 -0.00975498 0 0 Z" fill="#FCFEFD" transform="translate(210.09765625,435.384765625)"/>
<path style="opacity: 1; visibility: visible; fill: rgb(255, 255, 255);" data-index="13" d="M0 0 C0.6930574 -0.00832352 1.38611481 -0.01664703 2.10017395 -0.02522278 C4.39260471 -0.04932795 6.68475084 -0.05809605 8.97729492 -0.06469727 C10.5728921 -0.0736644 12.16848842 -0.08278626 13.76408386 -0.09205627 C17.110647 -0.10855103 20.45711005 -0.11624705 23.80371094 -0.11914062 C28.08454779 -0.12451996 32.36443898 -0.16217814 36.64500904 -0.20788479 C39.94194438 -0.23768421 43.238653 -0.24486482 46.53571129 -0.24586678 C48.1133424 -0.25006469 49.69097445 -0.26248192 51.26847267 -0.28338432 C53.48046152 -0.31035655 55.69027237 -0.30545822 57.90234375 -0.29296875 C59.15904373 -0.2980394 60.41574371 -0.30311005 61.71052551 -0.30833435 C66.30288391 0.51358109 67.92060803 1.9684504 71.14526367 5.30639648 C71.83276367 8.80639648 71.83276367 8.80639648 71.14526367 12.30639648 C68.50766315 15.69273173 67.03041946 17.14206509 62.76158142 17.93458557 C60.82443016 17.93602821 60.82443016 17.93602821 58.84814453 17.9375 C58.13207535 17.9446553 57.41600616 17.95181061 56.67823792 17.95918274 C54.32153685 17.97603232 51.96674811 17.95669396 49.61010742 17.93530273 C47.96773624 17.9361317 46.32536513 17.93859213 44.68299866 17.94261169 C41.24560492 17.94546698 37.80886376 17.93079401 34.37158203 17.90332031 C29.96732985 17.8692104 25.56424225 17.87526681 21.15993404 17.89398289 C17.77037357 17.90455406 14.38108384 17.89561459 10.99154854 17.88059807 C9.36765916 17.87541842 7.7437415 17.87589545 6.11985588 17.88214302 C3.85028187 17.88759803 1.58237253 17.86721541 -0.68701172 17.83984375 C-1.9776503 17.83364517 -3.26828888 17.82744659 -4.59803772 17.82106018 C-8.40568816 17.21932828 -9.57183942 16.35418812 -11.85473633 13.30639648 C-13.01185441 9.68075982 -13.18990723 8.04377246 -11.60473633 4.55639648 C-8.14121551 0.10329829 -5.3743847 0.0455886 0 0 Z" fill="#FBFEFD" transform="translate(209.854736328125,500.693603515625)"/>
<path style="opacity: 1;" data-index="14" d="M0 0 C1.12535156 0.00580078 1.12535156 0.00580078 2.2734375 0.01171875 C3.02367187 0.00785156 3.77390625 0.00398438 4.546875 0 C10.14682697 0.01010822 10.14682697 0.01010822 11.2734375 1.13671875 C11.37314905 3.43183371 11.40143616 5.73006424 11.40283203 8.02734375 C11.40458435 8.74764771 11.40633667 9.46795166 11.40814209 10.21008301 C11.41256038 12.60231909 11.40962271 14.99448185 11.40625 17.38671875 C11.40692305 19.04199233 11.40789308 20.69726582 11.40914917 22.35253906 C11.41062611 25.82618142 11.40847171 29.29979812 11.40380859 32.7734375 C11.3981113 37.23604373 11.40139033 41.69858983 11.40738106 46.16119385 C11.41098677 49.58057105 11.40984804 52.9999339 11.40725327 56.41931152 C11.40658402 58.06522631 11.40741232 59.71114238 11.40973282 61.35705566 C11.41225952 63.65343706 11.40841853 65.94971974 11.40283203 68.24609375 C11.40203644 69.55545898 11.40124084 70.86482422 11.40042114 72.21386719 C11.2734375 75.13671875 11.2734375 75.13671875 10.2734375 76.13671875 C7.5961237 76.23653089 4.95039575 76.2755175 2.2734375 76.26171875 C1.14808594 76.26751953 1.14808594 76.26751953 0 76.2734375 C-5.59995197 76.26332928 -5.59995197 76.26332928 -6.7265625 75.13671875 C-6.82627405 72.84160379 -6.85456116 70.54337326 -6.85595703 68.24609375 C-6.85770935 67.52578979 -6.85946167 66.80548584 -6.86126709 66.06335449 C-6.86568538 63.67111841 -6.86274771 61.27895565 -6.859375 58.88671875 C-6.86004805 57.23144517 -6.86101808 55.57617168 -6.86227417 53.92089844 C-6.86375111 50.44725608 -6.86159671 46.97363938 -6.85693359 43.5 C-6.8512363 39.03739377 -6.85451533 34.57484767 -6.86050606 30.11224365 C-6.86411177 26.69286645 -6.86297304 23.2735036 -6.86037827 19.85412598 C-6.85970902 18.20821119 -6.86053732 16.56229512 -6.86285782 14.91638184 C-6.86538452 12.62000044 -6.86154353 10.32371776 -6.85595703 8.02734375 C-6.85516144 6.71797852 -6.85436584 5.40861328 -6.85354614 4.05957031 C-6.63295413 -1.01791608 -4.56481999 0.00823975 0 0 Z" fill="#2C2C2C" transform="translate(866.7265625,480.86328125)"/>
<path style="opacity: 1; visibility: visible; fill: rgb(255, 255, 255);" data-index="15" d="M0 0 C3.67199499 2.08799715 5.65518792 3.38817148 8.1875 6.8125 C8.94052929 10.96773782 8.88499718 15.03791368 8.8125 19.25 C8.83183594 20.36955078 8.85117187 21.48910156 8.87109375 22.64257812 C8.816849 31.7828192 8.816849 31.7828192 5.8515625 35.48046875 C0.85649847 39.85298081 -4.06658278 41.40913148 -10.60546875 41.1640625 C-15.45117531 40.39218004 -18.71779178 37.93679492 -22.125 34.4375 C-26.14035579 28.19139099 -26.47291139 22.06670633 -25.8125 14.8125 C-24.54811465 9.05361987 -21.89863881 4.99830074 -17.8125 0.8125 C-12.28214525 -2.59168895 -5.98231856 -1.86334512 0 0 Z" fill="#FCFCFC" transform="translate(679.8125,498.1875)"/>
<path style="opacity: 1; visibility: visible; fill: rgb(255, 255, 255);" data-index="16" d="M0 0 C0.93779297 0.00322266 1.87558594 0.00644531 2.84179688 0.00976562 C4.30649414 0.02233398 4.30649414 0.02233398 5.80078125 0.03515625 C6.78884766 0.03966797 7.77691406 0.04417969 8.79492188 0.04882812 C11.23443599 0.06061322 13.67382814 0.07706614 16.11328125 0.09765625 C15.97523971 1.70488107 15.83077896 3.31155547 15.68359375 4.91796875 C15.60383301 5.81273926 15.52407227 6.70750977 15.44189453 7.62939453 C14.79658785 12.47638604 12.94621186 14.44194492 9.17578125 17.41015625 C4.15167408 20.03468985 -1.38479109 19.89367983 -6.88671875 19.09765625 C-9.96037661 17.28962221 -11.31691607 16.23726161 -12.88671875 13.09765625 C-13.26171875 9.78515625 -13.26171875 9.78515625 -12.88671875 6.09765625 C-9.00796635 1.27542353 -6.04694279 -0.03664814 0 0 Z" fill="#FCFCFC" transform="translate(503.88671875,523.90234375)"/>
<path style="opacity: 1; visibility: visible; fill: rgb(255, 255, 255);" data-index="17" d="M0 0 C0.93779297 0.00322266 1.87558594 0.00644531 2.84179688 0.00976562 C4.30649414 0.02233398 4.30649414 0.02233398 5.80078125 0.03515625 C6.78884766 0.03966797 7.77691406 0.04417969 8.79492188 0.04882812 C11.23443599 0.06061322 13.67382814 0.07706614 16.11328125 0.09765625 C15.99341442 1.52812999 15.86231544 2.95766511 15.7265625 4.38671875 C15.65477783 5.18287598 15.58299316 5.9790332 15.5090332 6.79931641 C14.75508607 11.17788417 12.30804081 14.04771603 9.05078125 16.91015625 C4.14222696 19.91862501 -1.31864451 19.5698029 -6.88671875 19.09765625 C-10.00609844 17.72512918 -11.37649025 17.11811325 -12.88671875 14.09765625 C-13.58620674 6.98619504 -13.58620674 6.98619504 -10.57421875 3.16015625 C-6.94708979 0.37654566 -4.43895058 -0.02690273 0 0 Z" fill="#FCFCFC" transform="translate(752.88671875,523.90234375)"/>
<path data-index="18" d="M0 0 C3.8356341 3.47033561 4.3151198 6.47698376 5.125 11.4375 C4.55277795 14.79930453 3.49658431 16.42286503 0.73828125 18.45703125 C-4.79697823 20.86144156 -11.11629296 20.24373348 -16.625 18.125 C-19.48387087 13.63248863 -19.3907849 8.53098403 -18.375 3.375 C-13.56303025 -2.64759216 -6.67966318 -3.21613412 0 0 Z" fill="#2E2D2E" transform="translate(876.375,448.625)"/>
<path style="opacity: 1;" data-index="19" d="M0 0 C6.6 0 13.2 0 20 0 C20.02254861 13.41226093 20.04091369 26.82450938 20.05181217 40.23678493 C20.0570416 46.46393472 20.06414033 52.69107092 20.07543945 58.91821289 C20.08626621 64.92226865 20.09227638 70.92631129 20.09487724 76.93037605 C20.09673188 79.2266161 20.10035321 81.52285539 20.10573006 83.81908989 C20.11293768 87.02320814 20.11399106 90.2272715 20.11352539 93.43139648 C20.11712067 94.39092728 20.12071594 95.35045807 20.12442017 96.33906555 C20.1230455 97.20709808 20.12167084 98.07513062 20.12025452 98.96946716 C20.12117631 99.72810279 20.1220981 100.48673841 20.12304783 101.268363 C20 103 20 103 19 104 C17.59651265 104.09860131 16.18819523 104.13078937 14.78125 104.1328125 C13.50701172 104.13474609 13.50701172 104.13474609 12.20703125 104.13671875 C11.31371094 104.13285156 10.42039062 104.12898437 9.5 104.125 C8.60667969 104.12886719 7.71335937 104.13273438 6.79296875 104.13671875 C5.94347656 104.13542969 5.09398437 104.13414062 4.21875 104.1328125 C3.43435547 104.13168457 2.64996094 104.13055664 1.84179688 104.12939453 C0 104 0 104 -1 103 C-1.08874135 99.89748799 -1.11518455 96.8173188 -1.09765625 93.71484375 C-1.0962413 92.78402481 -1.09482635 91.85320587 -1.09336853 90.8941803 C-1.08775172 87.90858809 -1.0751964 84.92306971 -1.0625 81.9375 C-1.05748716 79.91862087 -1.05292388 77.89974057 -1.04882812 75.88085938 C-1.03777683 70.92054428 -1.02050095 65.96028468 -1 61 C-0.01 60.505 -0.01 60.505 1 60 C1 73.86 1 87.72 1 102 C6.61 102 12.22 102 18 102 C18 68.67 18 35.34 18 1 C12.39 1 6.78 1 1 1 C1 14.86 1 28.72 1 43 C0.67 43 0.34 43 0 43 C0 28.81 0 14.62 0 0 Z" fill="#1D1D1E" transform="translate(439,453)"/>
<path style="opacity: 1;" data-index="20" d="M0 0 C0.33 0 0.66 0 1 0 C1 23.43 1 46.86 1 71 C5.95 71 10.9 71 16 71 C15.98428955 69.70376709 15.9685791 68.40753418 15.95239258 67.07202148 C15.89791776 62.24330914 15.86358607 57.41462376 15.83520508 52.58569336 C15.82015841 50.4993838 15.79971618 48.41310567 15.77368164 46.3269043 C15.73711705 43.32072169 15.7202321 40.31495888 15.70703125 37.30859375 C15.69154739 36.38227646 15.67606354 35.45595917 15.66011047 34.50157166 C15.6586639 28.88119505 16.40403546 25.00329498 19 20 C19.98203585 22.94610756 20.10327284 24.7449902 20.0534668 27.80688477 C20.0398259 28.78121964 20.026185 29.7555545 20.01213074 30.75941467 C19.99136978 31.80947189 19.97060883 32.85952911 19.94921875 33.94140625 C19.9303511 35.02002426 19.91148346 36.09864227 19.89204407 37.20994568 C19.85016014 39.49052107 19.80542256 41.77104556 19.75805664 44.05151367 C19.68771467 47.55181771 19.63346416 51.05213577 19.58007812 54.55273438 C19.53744266 56.76564418 19.49385521 58.9785359 19.44921875 61.19140625 C19.43453049 62.2434877 19.41984222 63.29556915 19.40470886 64.37953186 C19.38161148 65.35071457 19.3585141 66.32189728 19.3347168 67.32250977 C19.31837692 68.17949966 19.30203705 69.03648956 19.28520203 69.91944885 C19 72 19 72 17 74 C14.0906442 74.14517744 11.280054 74.18630796 8.375 74.125 C7.57320312 74.11597656 6.77140625 74.10695313 5.9453125 74.09765625 C3.96341477 74.07406223 1.98167019 74.03819065 0 74 C-0.9738908 69.95974938 -1.09000009 66.24778349 -1.02172852 62.09838867 C-1.0073172 61.08779892 -1.0073172 61.08779892 -0.99261475 60.05679321 C-0.95979807 57.84373953 -0.91940075 55.63089412 -0.87890625 53.41796875 C-0.85458815 51.87812521 -0.83074545 50.33827409 -0.80735779 48.79841614 C-0.74468491 44.75582211 -0.67557118 40.71336308 -0.60510254 36.67089844 C-0.5342669 32.54172893 -0.46954124 28.4124641 -0.40429688 24.28320312 C-0.27550119 16.1886965 -0.13989904 8.0943223 0 0 Z" fill="#373637" transform="translate(896,483)"/>
<path style="opacity: 1;" data-index="21" d="M0 0 C0.33 0 0.66 0 1 0 C1 23.43 1 46.86 1 71 C5.62 71 10.24 71 15 71 C15 47.57 15 24.14 15 0 C15.33 0 15.66 0 16 0 C16 24.42 16 48.84 16 74 C10.72 74 5.44 74 0 74 C-1.16760792 70.49717623 -1.08060028 67.83768417 -1.02172852 64.1418457 C-1.01212097 63.44890411 -1.00251343 62.75596252 -0.99261475 62.04202271 C-0.95965169 59.75317131 -0.91930925 57.4645124 -0.87890625 55.17578125 C-0.85460249 53.58823829 -0.83075906 52.00068823 -0.80735779 50.41313171 C-0.74454228 46.23570658 -0.67546846 42.05840738 -0.60510254 37.88110352 C-0.53439622 33.61805962 -0.46959301 29.35492647 -0.40429688 25.09179688 C-0.27531718 16.72776575 -0.1397276 8.36385844 0 0 Z" fill="#39393A" transform="translate(861,483)"/>
<path style="opacity: 1;" data-index="22" d="M0 0 C2 2 2 2 2.24050903 4.25259399 C2.2338472 5.65824112 2.2338472 5.65824112 2.22705078 7.09228516 C2.22689972 8.15323395 2.22674866 9.21418274 2.22659302 10.30728149 C2.21627045 11.45626923 2.20594788 12.60525696 2.1953125 13.7890625 C2.1924826 14.96262299 2.18965271 16.13618347 2.18673706 17.3453064 C2.17551355 21.10530662 2.15040492 24.86507139 2.125 28.625 C2.11497301 31.1692674 2.10584668 33.71353852 2.09765625 36.2578125 C2.0755671 42.50529949 2.04102236 48.75260979 2 55 C-3.28 54.67 -8.56 54.34 -14 54 C-14 53.67 -14 53.34 -14 53 C-9.71 53 -5.42 53 -1 53 C-1.00785522 50.69829834 -1.00785522 50.69829834 -1.01586914 48.35009766 C-1.03392771 42.6735085 -1.04543517 36.99692191 -1.05493164 31.3203125 C-1.05996989 28.86034722 -1.0668006 26.40038495 -1.07543945 23.94042969 C-1.08752723 20.41079975 -1.09323329 16.88120931 -1.09765625 13.3515625 C-1.10281754 12.24632233 -1.10797882 11.14108215 -1.11329651 10.00234985 C-1.11337204 8.98144257 -1.11344757 7.96053528 -1.11352539 6.90869141 C-1.115746 6.00712311 -1.11796661 5.10555481 -1.12025452 4.17666626 C-1 2 -1 2 0 0 Z" fill="#393839" transform="translate(785,501)"/>
<path style="opacity: 1;" data-index="23" d="M0 0 C0.33 0 0.66 0 1 0 C1 23.43 1 46.86 1 71 C5.95 71 10.9 71 16 71 C16 56.15 16 41.3 16 26 C16.33 26 16.66 26 17 26 C17.33 41.84 17.66 57.68 18 74 C12.06 74 6.12 74 0 74 C0 49.58 0 25.16 0 0 Z" fill="#39383A" transform="translate(556,483)"/>
<path data-index="24" d="M0 0 C0.66 1.32 1.32 2.64 2 4 C6.62 4 11.24 4 16 4 C16 4.66 16 5.32 16 6 C13.52076199 6.02685095 11.0418116 6.04676547 8.5625 6.0625 C7.85544922 6.07087891 7.14839844 6.07925781 6.41992188 6.08789062 C4.61306441 6.09653588 2.80612397 6.05220011 1 6 C0 5 0 5 -0.0625 2.4375 C-0.041875 1.633125 -0.02125 0.82875 0 0 Z" fill="#232323" transform="translate(769,551)"/>
</svg>